  0
SECTION
  2
HEADER
  9
$ANGBASE
  50
0.0
  9
$ANGDIR
  70
1
  9
$MEASUREMENT
  70
0
  0
ENDSEC
  0
SECTION
  2
TABLES
  0
TABLE
  2
LTYPE
  70
4
  0
LTYPE
  5
40F
  2
CONTINUOUS
  70
0
  3
Solid line
  72
65
  73
0
  40
0.0
  0
LTYPE
  5
410
  2
DASHDOT
 70
0
  3
Dash Dot ____ _ ____ _
 72
65
 73
4
 40
2.0
 49
1.25
 49
-0.25
 49
0.25
 49
-0.25
  0
LTYPE
  5
411
  2
DASHED
 70
0
  3
Dashed __ __ __ __ __
 72
65
 73
2
 40
0.75
 49
0.5
 49
-0.25
  0
LTYPE
  5
43B
  2
DOTTED
 70
0
  3
Dotted .  .  .  .
 72
65
 73
2
 40
0.2
 49
0.0
 49
-0.2
  0
ENDTAB
  0
TABLE
  2
STYLE
  70
4
  0
STYLE
  2
KICAD
  70
0
  40
0
  41
1
  42
1
  50
0
  71
0
  3
isocp.shx
  0
STYLE
  2
KICADB
  70
0
  40
0
  41
1
  42
1
  50
0
  71
0
  3
isocp.shx
  0
STYLE
  2
KICADI
  70
0
  40
0
  41
1
  42
1
  50
15
  71
0
  3
isocp.shx
  0
STYLE
  2
KICADBI
  70
0
  40
0
  41
1
  42
1
  50
15
  71
0
  3
isocp.shx
  0
ENDTAB
  0
TABLE
  2
LAYER
  70
1
  0
LAYER
  2
BLACK
  70
0
  62
7
  6
CONTINUOUS
  0
ENDTAB
  0
ENDSEC
  0
SECTION
  2
ENTITIES
0
LINE
8
BLACK
6
CONTINUOUS
10
10.8003766535433066
20
-0.7990906692913385
11
10.8009093307086612
21
-0.7996233464566929
0
LINE
8
BLACK
6
CONTINUOUS
10
10.8009093307086612
20
-0.7996233464566929
11
10.8009842519685044
21
-0.7999999999999999
0
LINE
8
BLACK
6
CONTINUOUS
10
10.8009842519685044
20
-0.7999999999999999
11
10.8009842519685044
21
-5.
0
LINE
8
BLACK
6
CONTINUOUS
10
10.8009842519685044
20
-5.
11
10.8009093307086612
21
-5.0003766535433067
0
LINE
8
BLACK
6
CONTINUOUS
10
10.8009093307086612
20
-5.0003766535433067
11
10.8003766535433066
21
-5.0009093307086614
0
LINE
8
BLACK
6
CONTINUOUS
10
10.8003766535433066
20
-5.0009093307086614
11
10.7999999999999989
21
-5.0009842519685037
0
LINE
8
BLACK
6
CONTINUOUS
10
10.7999999999999989
20
-5.0009842519685037
11
5.7999999999999998
21
-5.0009842519685037
0
LINE
8
BLACK
6
CONTINUOUS
10
5.7999999999999998
20
-5.0009842519685037
11
5.7996233464566931
21
-5.0009093307086614
0
LINE
8
BLACK
6
CONTINUOUS
10
5.7996233464566931
20
-5.0009093307086614
11
5.7990906692913384
21
-5.0003766535433067
0
LINE
8
BLACK
6
CONTINUOUS
10
5.7990906692913384
20
-5.0003766535433067
11
5.7990157480314961
21
-5.
0
LINE
8
BLACK
6
CONTINUOUS
10
5.7990157480314961
20
-5.
11
5.7990157480314961
21
-0.7999999999999999
0
LINE
8
BLACK
6
CONTINUOUS
10
5.7990157480314961
20
-0.7999999999999999
11
5.7990906692913384
21
-0.7996233464566929
0
LINE
8
BLACK
6
CONTINUOUS
10
5.7990906692913384
20
-0.7996233464566929
11
5.7996233464566931
21
-0.7990906692913385
0
LINE
8
BLACK
6
CONTINUOUS
10
5.7996233464566931
20
-0.7990906692913385
11
5.7999999999999998
21
-0.799015748031496
0
LINE
8
BLACK
6
CONTINUOUS
10
5.7999999999999998
20
-0.799015748031496
11
10.7999999999999989
21
-0.799015748031496
0
LINE
8
BLACK
6
CONTINUOUS
10
10.7999999999999989
20
-0.799015748031496
11
10.8003766535433066
21
-0.7990906692913385
0
LINE
8
BLACK
6
CONTINUOUS
10
5.8009842519685035
20
-0.8009842519685039
11
5.8009842519685035
21
-4.9990157480314963
0
LINE
8
BLACK
6
CONTINUOUS
10
5.8009842519685035
20
-4.9990157480314963
11
10.7990157480314952
21
-4.9990157480314963
0
LINE
8
BLACK
6
CONTINUOUS
10
10.7990157480314952
20
-4.9990157480314963
11
10.7990157480314952
21
-0.8009842519685039
0
LINE
8
BLACK
6
CONTINUOUS
10
10.7990157480314952
20
-0.8009842519685039
11
5.8009842519685035
21
-0.8009842519685039
0
LINE
8
BLACK
6
CONTINUOUS
10
5.5403766535433068
20
-0.8470906692913386
11
5.5409093307086614
21
-0.8476233464566929
0
LINE
8
BLACK
6
CONTINUOUS
10
5.5409093307086614
20
-0.8476233464566929
11
5.5409842519685037
21
-0.848
0
LINE
8
BLACK
6
CONTINUOUS
10
5.5409842519685037
20
-0.848
11
5.5409842519685037
21
-1.732
0
LINE
8
BLACK
6
CONTINUOUS
10
5.5409842519685037
20
-1.732
11
5.5409093307086614
21
-1.7323766535433069
0
LINE
8
BLACK
6
CONTINUOUS
10
5.5409093307086614
20
-1.7323766535433069
11
5.5403766535433068
21
-1.7329093307086614
0
LINE
8
BLACK
6
CONTINUOUS
10
5.5403766535433068
20
-1.7329093307086614
11
5.54
21
-1.7329842519685039
0
LINE
8
BLACK
6
CONTINUOUS
10
5.54
20
-1.7329842519685039
11
4.0720000000000001
21
-1.7329842519685039
0
LINE
8
BLACK
6
CONTINUOUS
10
4.0720000000000001
20
-1.7329842519685039
11
4.0716233464566924
21
-1.7329093307086614
0
LINE
8
BLACK
6
CONTINUOUS
10
4.0716233464566924
20
-1.7329093307086614
11
4.0710906692913387
21
-1.7323766535433069
0
LINE
8
BLACK
6
CONTINUOUS
10
4.0710906692913387
20
-1.7323766535433069
11
4.0710157480314964
21
-1.732
0
LINE
8
BLACK
6
CONTINUOUS
10
4.0710157480314964
20
-1.732
11
4.0710157480314964
21
-0.848
0
LINE
8
BLACK
6
CONTINUOUS
10
4.0710157480314964
20
-0.848
11
4.0710906692913387
21
-0.8476233464566929
0
LINE
8
BLACK
6
CONTINUOUS
10
4.0710906692913387
20
-0.8476233464566929
11
4.0716233464566924
21
-0.8470906692913386
0
LINE
8
BLACK
6
CONTINUOUS
10
4.0716233464566924
20
-0.8470906692913386
11
4.0720000000000001
21
-0.847015748031496
0
LINE
8
BLACK
6
CONTINUOUS
10
4.0720000000000001
20
-0.847015748031496
11
5.54
21
-0.847015748031496
0
LINE
8
BLACK
6
CONTINUOUS
10
5.54
20
-0.847015748031496
11
5.5403766535433068
21
-0.8470906692913386
0
LINE
8
BLACK
6
CONTINUOUS
10
4.0729842519685038
20
-0.8489842519685039
11
4.0729842519685038
21
-1.731015748031496
0
LINE
8
BLACK
6
CONTINUOUS
10
4.0729842519685038
20
-1.731015748031496
11
5.5390157480314963
21
-1.731015748031496
0
LINE
8
BLACK
6
CONTINUOUS
10
5.5390157480314963
20
-1.731015748031496
11
5.5390157480314963
21
-0.8489842519685039
0
LINE
8
BLACK
6
CONTINUOUS
10
5.5390157480314963
20
-0.8489842519685039
11
4.0729842519685038
21
-0.8489842519685039
  0
ENDSEC
  0
EOF
